name analog
datacolumns 19
datarows 76
range 0.47700000000000004 0.5145
endheader
time	ground_force_vx	ground_force_vy	ground_force_vz	ground_force_px	ground_force_py	ground_force_pz	l_ground_force_vx	l_ground_force_vy	l_ground_force_vz	l_ground_force_px	l_ground_force_py	l_ground_force_pz	ground_torque_x	ground_torque_y	ground_torque_z	l_ground_torque_x	l_ground_torque_y	l_ground_torque_z
0.47700000000000004	-0.0	-0.0	-0.0	10.738903999328612	9.39494800567627	-795.2894287109375	-0.0	-0.0	-0.0	-0.0	-0.0	-0.0	-0.0	-0.0	-0.0	-0.0	-0.0	-0.0
0.47750000000000004	-0.0	-0.0	-0.0	8.91487979888916	8.639482498168945	-798.8200073242188	-0.0	-0.0	-0.0	-0.0	-0.0	-0.0	-0.0	-0.0	-0.0	-0.0	-0.0	-0.0
0.47800000000000004	-0.0	-0.0	-0.0	7.730690479278564	7.576084136962891	-800.2450561523438	-0.0	-0.0	-0.0	-0.0	-0.0	-0.0	-0.0	-0.0	-0.0	-0.0	-0.0	-0.0
0.47850000000000004	-0.0	-0.0	-0.0	6.1156535148620605	6.620296955108643	-804.7392578125	-0.0	-0.0	-0.0	-0.0	-0.0	-0.0	-0.0	-0.0	-0.0	-0.0	-0.0	-0.0
0.47900000000000004	-0.0	-0.0	-0.0	4.608759880065918	5.486321449279785	-806.7607421875	-0.0	-0.0	-0.0	-0.0	-0.0	-0.0	-0.0	-0.0	-0.0	-0.0	-0.0	-0.0
0.47950000000000004	-0.0	-0.0	-0.0	3.4341635704040527	4.678905487060547	-807.7225341796875	-0.0	-0.0	-0.0	-0.0	-0.0	-0.0	-0.0	-0.0	-0.0	-0.0	-0.0	-0.0
0.48	-0.0	-0.0	-0.0	2.557292461395264	4.29315185546875	-808.4288330078125	-0.0	-0.0	-0.0	-0.0	-0.0	-0.0	-0.0	-0.0	-0.0	-0.0	-0.0	-0.0
0.4805	-0.0	-0.0	-0.0	3.365194797515869	4.223909854888916	-811.39208984375	-0.0	-0.0	-0.0	-0.0	-0.0	-0.0	-0.0	-0.0	-0.0	-0.0	-0.0	-0.0
0.481	-0.0	-0.0	-0.0	3.0828113555908203	4.441803932189941	-810.901123046875	-0.0	-0.0	-0.0	-0.0	-0.0	-0.0	-0.0	-0.0	-0.0	-0.0	-0.0	-0.0
0.4815	-0.0	-0.0	-0.0	3.458723545074463	4.466753959655762	-812.4122924804688	-0.0	-0.0	-0.0	-0.0	-0.0	-0.0	-0.0	-0.0	-0.0	-0.0	-0.0	-0.0
0.482	-0.0	-0.0	-0.0	3.429410219192505	5.194440841674805	-810.7039794921875	-0.0	-0.0	-0.0	-0.0	-0.0	-0.0	-0.0	-0.0	-0.0	-0.0	-0.0	-0.0
0.4825	-0.0	-0.0	-0.0	4.167968273162842	5.436954498291016	-807.0006103515625	-0.0	-0.0	-0.0	-0.0	-0.0	-0.0	-0.0	-0.0	-0.0	-0.0	-0.0	-0.0
0.483	-0.0	-0.0	-0.0	4.992103099822998	6.149997711181641	-806.0133056640625	-0.0	-0.0	-0.0	-0.0	-0.0	-0.0	-0.0	-0.0	-0.0	-0.0	-0.0	-0.0
0.4835	-0.0	-0.0	-0.0	5.927106857299805	6.738159656524658	-801.5631713867188	-0.0	-0.0	-0.0	-0.0	-0.0	-0.0	-0.0	-0.0	-0.0	-0.0	-0.0	-0.0
0.484	-0.0	-0.0	-0.0	7.240179061889648	7.946721076965332	-800.5166625976562	-0.0	-0.0	-0.0	-0.0	-0.0	-0.0	-0.0	-0.0	-0.0	-0.0	-0.0	-0.0
0.4845	-0.0	-0.0	-0.0	7.147874355316162	8.812886238098145	-796.77392578125	-0.0	-0.0	-0.0	-0.0	-0.0	-0.0	-0.0	-0.0	-0.0	-0.0	-0.0	-0.0
0.485	-0.0	-0.0	-0.0	6.548644065856934	9.244486808776855	-794.8978271484375	-0.0	-0.0	-0.0	-0.0	-0.0	-0.0	-0.0	-0.0	-0.0	-0.0	-0.0	-0.0
0.4855	-0.0	-0.0	-0.0	5.860276222229004	9.21933937072754	-793.2421875	-0.0	-0.0	-0.0	-0.0	-0.0	-0.0	-0.0	-0.0	-0.0	-0.0	-0.0	-0.0
0.486	-0.0	-0.0	-0.0	4.97062873840332	9.255842208862305	-792.943359375	-0.0	-0.0	-0.0	-0.0	-0.0	-0.0	-0.0	-0.0	-0.0	-0.0	-0.0	-0.0
0.4865	-0.0	-0.0	-0.0	3.925262451171875	9.02734375	-791.4223022460938	-0.0	-0.0	-0.0	-0.0	-0.0	-0.0	-0.0	-0.0	-0.0	-0.0	-0.0	-0.0
0.487	-0.0	-0.0	-0.0	2.9052014350891118	8.988670349121094	-790.9232788085938	-0.0	-0.0	-0.0	-0.0	-0.0	-0.0	-0.0	-0.0	-0.0	-0.0	-0.0	-0.0
0.4875	-0.0	-0.0	-0.0	2.7150089740753174	9.29640769958496	-792.0826416015625	-0.0	-0.0	-0.0	-0.0	-0.0	-0.0	-0.0	-0.0	-0.0	-0.0	-0.0	-0.0
0.488	-0.0	-0.0	-0.0	2.332799196243286	9.409236907958984	-793.7955932617188	-0.0	-0.0	-0.0	-0.0	-0.0	-0.0	-0.0	-0.0	-0.0	-0.0	-0.0	-0.0
0.4885	-0.0	-0.0	-0.0	1.5804579257965088	9.385101318359377	-795.2086181640625	-0.0	-0.0	-0.0	-0.0	-0.0	-0.0	-0.0	-0.0	-0.0	-0.0	-0.0	-0.0
0.489	-0.0	-0.0	-0.0	0.1784210205078125	9.410298347473145	-797.733154296875	-0.0	-0.0	-0.0	-0.0	-0.0	-0.0	-0.0	-0.0	-0.0	-0.0	-0.0	-0.0
0.4895	-0.0	-0.0	-0.0	-0.586733341217041	8.696383476257324	-799.75146484375	-0.0	-0.0	-0.0	-0.0	-0.0	-0.0	-0.0	-0.0	-0.0	-0.0	-0.0	-0.0
0.49	-0.0	-0.0	-0.0	-0.7266148328781128	8.3911771774292	-801.3670043945312	-0.0	-0.0	-0.0	-0.0	-0.0	-0.0	-0.0	-0.0	-0.0	-0.0	-0.0	-0.0
0.4905	-0.0	-0.0	-0.0	-1.083125114440918	8.569360733032227	-802.5255737304688	-0.0	-0.0	-0.0	-0.0	-0.0	-0.0	-0.0	-0.0	-0.0	-0.0	-0.0	-0.0
0.491	-0.0	-0.0	-0.0	-1.4018793106079102	8.798443794250488	-805.3007202148438	-0.0	-0.0	-0.0	-0.0	-0.0	-0.0	-0.0	-0.0	-0.0	-0.0	-0.0	-0.0
0.4915	-0.0	-0.0	-0.0	-1.147101879119873	9.01479434967041	-809.3363037109375	-0.0	-0.0	-0.0	-0.0	-0.0	-0.0	-0.0	-0.0	-0.0	-0.0	-0.0	-0.0
0.492	-0.0	-0.0	-0.0	-0.981773853302002	9.638620376586914	-809.33935546875	-0.0	-0.0	-0.0	-0.0	-0.0	-0.0	-0.0	-0.0	-0.0	-0.0	-0.0	-0.0
0.4925	-0.0	-0.0	-0.0	-1.2745347023010254	9.690340995788574	-811.5581665039062	-0.0	-0.0	-0.0	-0.0	-0.0	-0.0	-0.0	-0.0	-0.0	-0.0	-0.0	-0.0
0.493	-0.0	-0.0	-0.0	-0.9177291393280028	9.511351585388184	-813.474853515625	-0.0	-0.0	-0.0	-0.0	-0.0	-0.0	-0.0	-0.0	-0.0	-0.0	-0.0	-0.0
0.4935	-0.0	-0.0	-0.0	-0.2798606157302856	10.86048984527588	-815.4393310546875	-0.0	-0.0	-0.0	-0.0	-0.0	-0.0	-0.0	-0.0	-0.0	-0.0	-0.0	-0.0
0.494	-0.0	-0.0	-0.0	-0.4460525512695312	11.256093978881836	-819.174072265625	-0.0	-0.0	-0.0	-0.0	-0.0	-0.0	-0.0	-0.0	-0.0	-0.0	-0.0	-0.0
0.4945	-0.0	-0.0	-0.0	-0.307034969329834	11.230430603027344	-819.1737670898438	-0.0	-0.0	-0.0	-0.0	-0.0	-0.0	-0.0	-0.0	-0.0	-0.0	-0.0	-0.0
0.495	-0.0	-0.0	-0.0	-1.19932222366333	11.117456436157228	-820.9866333007812	-0.0	-0.0	-0.0	-0.0	-0.0	-0.0	-0.0	-0.0	-0.0	-0.0	-0.0	-0.0
0.4955	-0.0	-0.0	-0.0	-1.835780382156372	12.107816696166992	-819.7388916015625	-0.0	-0.0	-0.0	-0.0	-0.0	-0.0	-0.0	-0.0	-0.0	-0.0	-0.0	-0.0
0.496	-0.0	-0.0	-0.0	-2.511970043182373	12.694050788879396	-821.4408569335938	-0.0	-0.0	-0.0	-0.0	-0.0	-0.0	-0.0	-0.0	-0.0	-0.0	-0.0	-0.0
0.4965	-0.0	-0.0	-0.0	-3.467573404312134	12.808942794799805	-821.0409545898438	-0.0	-0.0	-0.0	-0.0	-0.0	-0.0	-0.0	-0.0	-0.0	-0.0	-0.0	-0.0
0.497	-0.0	-0.0	-0.0	-4.420333862304688	12.512932777404783	-818.7277221679688	-0.0	-0.0	-0.0	-0.0	-0.0	-0.0	-0.0	-0.0	-0.0	-0.0	-0.0	-0.0
0.4975	-0.0	-0.0	-0.0	-4.802910327911377	12.415019035339355	-818.728271484375	-0.0	-0.0	-0.0	-0.0	-0.0	-0.0	-0.0	-0.0	-0.0	-0.0	-0.0	-0.0
0.498	-0.0	-0.0	-0.0	-5.873291015625	12.697036743164062	-818.420654296875	-0.0	-0.0	-0.0	-0.0	-0.0	-0.0	-0.0	-0.0	-0.0	-0.0	-0.0	-0.0
0.4985	-0.0	-0.0	-0.0	-6.2447357177734375	12.65308666229248	-818.729248046875	-0.0	-0.0	-0.0	-0.0	-0.0	-0.0	-0.0	-0.0	-0.0	-0.0	-0.0	-0.0
0.499	-0.0	-0.0	-0.0	-6.5383830070495605	12.71965503692627	-818.4208984375	-0.0	-0.0	-0.0	-0.0	-0.0	-0.0	-0.0	-0.0	-0.0	-0.0	-0.0	-0.0
0.4995	-0.0	-0.0	-0.0	-6.653681755065918	12.949936866760254	-817.9803466796875	-0.0	-0.0	-0.0	-0.0	-0.0	-0.0	-0.0	-0.0	-0.0	-0.0	-0.0	-0.0
0.5	-0.0	-0.0	-0.0	-7.430553436279297	13.261188507080078	-820.333740234375	-0.0	-0.0	-0.0	-0.0	-0.0	-0.0	-0.0	-0.0	-0.0	-0.0	-0.0	-0.0
0.5005000000000001	-0.0	-0.0	-0.0	-8.144270896911621	12.67175006866455	-819.56689453125	-0.0	-0.0	-0.0	-0.0	-0.0	-0.0	-0.0	-0.0	-0.0	-0.0	-0.0	-0.0
0.501	-0.0	-0.0	-0.0	-8.30733585357666	12.2631196975708	-819.6697387695312	-0.0	-0.0	-0.0	-0.0	-0.0	-0.0	-0.0	-0.0	-0.0	-0.0	-0.0	-0.0
0.5015000000000001	-0.0	-0.0	-0.0	-8.04448413848877	12.226388931274414	-819.37744140625	-0.0	-0.0	-0.0	-0.0	-0.0	-0.0	-0.0	-0.0	-0.0	-0.0	-0.0	-0.0
0.502	-0.0	-0.0	-0.0	-7.54103946685791	12.399687767028809	-821.6840209960938	-0.0	-0.0	-0.0	-0.0	-0.0	-0.0	-0.0	-0.0	-0.0	-0.0	-0.0	-0.0
0.5025000000000001	-0.0	-0.0	-0.0	-7.031843662261963	12.693196296691896	-821.3926391601562	-0.0	-0.0	-0.0	-0.0	-0.0	-0.0	-0.0	-0.0	-0.0	-0.0	-0.0	-0.0
0.503	-0.0	-0.0	-0.0	-6.690788269042969	13.04407024383545	-820.3329467773438	-0.0	-0.0	-0.0	-0.0	-0.0	-0.0	-0.0	-0.0	-0.0	-0.0	-0.0	-0.0
0.5035000000000001	-0.0	-0.0	-0.0	-5.646573543548584	13.574109077453612	-819.1919555664062	-0.0	-0.0	-0.0	-0.0	-0.0	-0.0	-0.0	-0.0	-0.0	-0.0	-0.0	-0.0
0.504	-0.0	-0.0	-0.0	-4.655128002166748	14.234539985656738	-819.4176635742188	-0.0	-0.0	-0.0	-0.0	-0.0	-0.0	-0.0	-0.0	-0.0	-0.0	-0.0	-0.0
0.5045000000000001	-0.0	-0.0	-0.0	-3.967973947525024	15.125807762145996	-817.9647216796875	-0.0	-0.0	-0.0	-0.0	-0.0	-0.0	-0.0	-0.0	-0.0	-0.0	-0.0	-0.0
0.505	-0.0	-0.0	-0.0	-3.7468414306640634	16.324405670166016	-816.552001953125	-0.0	-0.0	-0.0	-0.0	-0.0	-0.0	-0.0	-0.0	-0.0	-0.0	-0.0	-0.0
0.5055000000000001	-0.0	-0.0	-0.0	-3.3173508644104004	16.891809463500977	-816.0941772460938	-0.0	-0.0	-0.0	-0.0	-0.0	-0.0	-0.0	-0.0	-0.0	-0.0	-0.0	-0.0
0.506	-0.0	-0.0	-0.0	-3.3007888793945312	17.881824493408203	-814.6426391601562	-0.0	-0.0	-0.0	-0.0	-0.0	-0.0	-0.0	-0.0	-0.0	-0.0	-0.0	-0.0
0.5065000000000001	-0.0	-0.0	-0.0	-3.614314079284668	18.67410659790039	-812.8103637695312	-0.0	-0.0	-0.0	-0.0	-0.0	-0.0	-0.0	-0.0	-0.0	-0.0	-0.0	-0.0
0.507	-0.0	-0.0	-0.0	-3.27424693107605	19.271318435668945	-809.4212646484375	-0.0	-0.0	-0.0	-0.0	-0.0	-0.0	-0.0	-0.0	-0.0	-0.0	-0.0	-0.0
0.5075000000000001	-0.0	-0.0	-0.0	-3.7468414306640634	19.777482986450195	-807.04638671875	-0.0	-0.0	-0.0	-0.0	-0.0	-0.0	-0.0	-0.0	-0.0	-0.0	-0.0	-0.0
0.508	-0.0	-0.0	-0.0	-4.372873783111572	20.776763916015625	-804.3641967773438	-0.0	-0.0	-0.0	-0.0	-0.0	-0.0	-0.0	-0.0	-0.0	-0.0	-0.0	-0.0
0.5085000000000001	-0.0	-0.0	-0.0	-5.21697473526001	21.125131607055664	-802.2777099609375	-0.0	-0.0	-0.0	-0.0	-0.0	-0.0	-0.0	-0.0	-0.0	-0.0	-0.0	-0.0
0.509	-0.0	-0.0	-0.0	-5.656118869781494	21.34630012512207	-799.2462158203125	-0.0	-0.0	-0.0	-0.0	-0.0	-0.0	-0.0	-0.0	-0.0	-0.0	-0.0	-0.0
0.5095000000000001	-0.0	-0.0	-0.0	-6.931706428527832	22.37173080444336	-798.0808715820312	-0.0	-0.0	-0.0	-0.0	-0.0	-0.0	-0.0	-0.0	-0.0	-0.0	-0.0	-0.0
0.51	-0.0	-0.0	-0.0	-7.7615556716918945	22.808637619018555	-797.3744506835938	-0.0	-0.0	-0.0	-0.0	-0.0	-0.0	-0.0	-0.0	-0.0	-0.0	-0.0	-0.0
0.5105000000000001	-0.0	-0.0	-0.0	-8.394672393798828	22.942140579223636	-794.2664794921875	-0.0	-0.0	-0.0	-0.0	-0.0	-0.0	-0.0	-0.0	-0.0	-0.0	-0.0	-0.0
0.511	-0.0	-0.0	-0.0	-8.813803672790527	23.52165985107422	-794.0546264648438	-0.0	-0.0	-0.0	-0.0	-0.0	-0.0	-0.0	-0.0	-0.0	-0.0	-0.0	-0.0
0.5115000000000001	-0.0	-0.0	-0.0	-9.232913970947266	23.806507110595703	-791.3729858398438	-0.0	-0.0	-0.0	-0.0	-0.0	-0.0	-0.0	-0.0	-0.0	-0.0	-0.0	-0.0
0.512	-0.0	-0.0	-0.0	-8.939337730407715	24.40456962585449	-792.6761474609375	-0.0	-0.0	-0.0	-0.0	-0.0	-0.0	-0.0	-0.0	-0.0	-0.0	-0.0	-0.0
0.5125	-0.0	-0.0	-0.0	-8.796451568603516	25.170129776000977	-792.636474609375	-0.0	-0.0	-0.0	-0.0	-0.0	-0.0	-0.0	-0.0	-0.0	-0.0	-0.0	-0.0
0.513	-0.0	-0.0	-0.0	-8.858773231506348	26.158924102783203	-794.2683715820312	-0.0	-0.0	-0.0	-0.0	-0.0	-0.0	-0.0	-0.0	-0.0	-0.0	-0.0	-0.0
0.5135	-0.0	-0.0	-0.0	-8.064217567443848	26.917381286621094	-795.35302734375	18.02628898620605	0.3440061211585998	-22.16986083984375	-0.0	-0.0	-0.0	-0.0	-0.0	-0.0	8644.9921875	-5756.9501953125	7805.62939453125
0.514	-0.0	-0.0	-0.0	-7.261250019073486	27.460350036621094	-796.174560546875	18.93924903869629	-0.0702568143606185	-27.19614028930664	-0.0	-0.0	-0.0	-0.0	-0.0	-0.0	10308.3994140625	-6578.29150390625	8289.7197265625
0.5145	-0.0	-0.0	-0.0	-5.266107559204102	28.9484806060791	-794.9437866210938	19.481142044067383	-0.8384268283843994	-30.443035125732425	-0.0	-0.0	-0.0	-0.0	-0.0	-0.0	11891.40234375	-7669.5478515625	8728.7685546875
